<?xml version="1.0" encoding="UTF-8" standalone="no"?>
<svg
   xmlns:dc="http://purl.org/dc/elements/1.1/"
   xmlns:cc="http://creativecommons.org/ns#"
   xmlns:rdf="http://www.w3.org/1999/02/22-rdf-syntax-ns#"
   xmlns:svg="http://www.w3.org/2000/svg"
   xmlns="http://www.w3.org/2000/svg"
   xmlns:sodipodi="http://sodipodi.sourceforge.net/DTD/sodipodi-0.dtd"
   xmlns:inkscape="http://www.inkscape.org/namespaces/inkscape"
   height="22"
   width="22"
   version="1.1"
   id="svg11"
   sodipodi:docname="intel22px.svg"
   inkscape:version="0.92.4 (5da689c313, 2019-01-14)">
  <metadata
     id="metadata17">
    <rdf:RDF>
      <cc:Work
         rdf:about="">
        <dc:format>image/svg+xml</dc:format>
        <dc:type
           rdf:resource="http://purl.org/dc/dcmitype/StillImage" />
      </cc:Work>
    </rdf:RDF>
  </metadata>
  <defs
     id="defs15" />
  <sodipodi:namedview
     pagecolor="#ffffff"
     bordercolor="#666666"
     borderopacity="1"
     objecttolerance="10"
     gridtolerance="10"
     guidetolerance="10"
     inkscape:pageopacity="0"
     inkscape:pageshadow="2"
     inkscape:window-width="1920"
     inkscape:window-height="985"
     id="namedview13"
     showgrid="false"
     inkscape:zoom="10.727273"
     inkscape:cx="11"
     inkscape:cy="11"
     inkscape:window-x="1280"
     inkscape:window-y="30"
     inkscape:window-maximized="1"
     inkscape:current-layer="svg11" />
  <style
     type="text/css"
     id="current-color-scheme">
        .ColorScheme-Text {
            color:#232629;
        }
    </style>
  <g
     class="ColorScheme-Text"
     fill="currentColor"
     id="g9"
     style="fill:#127cc1;fill-opacity:1">
    <path
       d="M10 9v5a2 2 0 0 0 2 2V9zm0-3h2v2h-2z"
       id="path3"
       style="fill:#127cc1;fill-opacity:1" />
    <path
       d="M4 7.146A8 8 0 0 0 3 11a8 8 0 0 0 8 8 8 8 0 0 0 6-2.723v-1.69A7 7 0 0 1 11 18a7 7 0 0 1-7-7z"
       id="path5"
       style="fill:#127cc1;fill-opacity:1" />
    <path
       d="M11.5 3A7.5 7.5 0 0 0 5 6.777V10.5A6.5 6.5 0 0 1 11.5 4a6.5 6.5 0 0 1 6.5 6.5v3.723a7.5 7.5 0 0 0 1-3.723A7.5 7.5 0 0 0 11.5 3z"
       id="path7"
       style="fill:#127cc1;fill-opacity:1" />
  </g>
</svg>
