<?xml version="1.0" encoding="UTF-8" standalone="no"?>
<svg
   xmlns:dc="http://purl.org/dc/elements/1.1/"
   xmlns:cc="http://creativecommons.org/ns#"
   xmlns:rdf="http://www.w3.org/1999/02/22-rdf-syntax-ns#"
   xmlns:svg="http://www.w3.org/2000/svg"
   xmlns="http://www.w3.org/2000/svg"
   xmlns:sodipodi="http://sodipodi.sourceforge.net/DTD/sodipodi-0.dtd"
   xmlns:inkscape="http://www.inkscape.org/namespaces/inkscape"
   height="22"
   width="22"
   version="1.1"
   id="svg10"
   sodipodi:docname="nvidia22px.svg"
   inkscape:version="0.92.4 (5da689c313, 2019-01-14)">
  <metadata
     id="metadata16">
    <rdf:RDF>
      <cc:Work
         rdf:about="">
        <dc:format>image/svg+xml</dc:format>
        <dc:type
           rdf:resource="http://purl.org/dc/dcmitype/StillImage" />
      </cc:Work>
    </rdf:RDF>
  </metadata>
  <defs
     id="defs14" />
  <sodipodi:namedview
     pagecolor="#ffffff"
     bordercolor="#666666"
     borderopacity="1"
     objecttolerance="10"
     gridtolerance="10"
     guidetolerance="10"
     inkscape:pageopacity="0"
     inkscape:pageshadow="2"
     inkscape:window-width="1920"
     inkscape:window-height="985"
     id="namedview12"
     showgrid="false"
     inkscape:zoom="21.454545"
     inkscape:cx="1.0929123"
     inkscape:cy="11.189356"
     inkscape:window-x="1280"
     inkscape:window-y="30"
     inkscape:window-maximized="1"
     inkscape:current-layer="svg10" />
  <style
     type="text/css"
     id="current-color-scheme">
        .ColorScheme-Text {
            color:#232629;
        }
    </style>
  <g
     class="ColorScheme-Text"
     id="22-22-nvidia"
     fill="currentColor"
     style="fill:#76b900;fill-opacity:1">
    <path
       d="M11 3v2a6 6 0 0 1 4.242 1.758l2.121 2.12-4.242 4.243A3 3 0 0 1 11 14v2a5 5 0 0 0 3.535-1.465L18 11.07v1.414l-2.758 2.758A6 6 0 0 1 11 17v2h8V3z"
       id="path3"
       style="fill:#76b900;fill-opacity:1" />
    <path
       d="M11 6v2a3 3 0 0 1 2.121.879l1.414 1.414 1.414-1.414-1.414-1.414A5 5 0 0 0 11 6zm0 3v4a2 2 0 0 0 1.414-.586L13.828 11l-1.414-1.414A2 2 0 0 0 11 9zm0-1a3 3 0 0 0-2.121.879L6.758 11l2.12 2.121A3 3 0 0 0 11 14v-1a2 2 0 0 1-1.414-.586L8.172 11l1.414-1.414A2 2 0 0 1 11 9z"
       id="path5"
       style="fill:#76b900;fill-opacity:1" />
    <path
       d="M11 5a6 6 0 0 0-4.242 1.758L2.516 11l4.242 4.242A6 6 0 0 0 11 17v-1a5 5 0 0 1-3.535-1.465L3.93 11l3.535-3.535A5 5 0 0 1 11 6z"
       id="path7"
       style="fill:#76b900;fill-opacity:1" />
  </g>
</svg>
