<?xml version="1.0" encoding="UTF-8" standalone="no"?>
<!-- Created with Inkscape (http://www.inkscape.org/) -->

<svg
   xmlns:dc="http://purl.org/dc/elements/1.1/"
   xmlns:cc="http://creativecommons.org/ns#"
   xmlns:rdf="http://www.w3.org/1999/02/22-rdf-syntax-ns#"
   xmlns:svg="http://www.w3.org/2000/svg"
   xmlns="http://www.w3.org/2000/svg"
   xmlns:xlink="http://www.w3.org/1999/xlink"
   xmlns:sodipodi="http://sodipodi.sourceforge.net/DTD/sodipodi-0.dtd"
   xmlns:inkscape="http://www.inkscape.org/namespaces/inkscape"
   inkscape:export-ydpi="90.000000"
   inkscape:export-xdpi="90.000000"
   width="40"
   height="41"
   id="svg11300"
   sodipodi:version="0.32"
   inkscape:version="0.92.4 (5da689c313, 2019-01-14)"
   sodipodi:docname="nvidia.svg"
   inkscape:output_extension="org.inkscape.output.svg.inkscape"
   version="1.0"
   style="display:inline;enable-background:new"
   inkscape:export-filename="/home/sam/paper-template.png">
  <title
     id="title3004">Paper Icon Theme</title>
  <sodipodi:namedview
     stroke="#ef2929"
     fill="#f57900"
     id="base"
     pagecolor="#000000"
     bordercolor="#666666"
     borderopacity="0.25490196"
     inkscape:pageopacity="0"
     inkscape:pageshadow="2"
     inkscape:zoom="1.4142136"
     inkscape:cx="51.048246"
     inkscape:cy="-119.60204"
     inkscape:current-layer="layer6"
     showgrid="false"
     inkscape:grid-bbox="true"
     inkscape:document-units="px"
     inkscape:showpageshadow="false"
     inkscape:window-width="1920"
     inkscape:window-height="985"
     inkscape:window-x="1280"
     inkscape:window-y="30"
     width="400px"
     height="300px"
     inkscape:snap-nodes="true"
     inkscape:snap-bbox="true"
     gridtolerance="10000"
     inkscape:object-nodes="true"
     inkscape:snap-grids="true"
     showguides="true"
     inkscape:guide-bbox="true"
     inkscape:window-maximized="1"
     inkscape:bbox-nodes="true"
     inkscape:snap-bbox-edge-midpoints="true"
     inkscape:snap-bbox-midpoints="true"
     fit-margin-top="0"
     fit-margin-left="0"
     fit-margin-right="0"
     fit-margin-bottom="0">
    <inkscape:grid
       spacingy="1"
       spacingx="1"
       id="grid5883"
       type="xygrid"
       enabled="true"
       visible="true"
       empspacing="4"
       snapvisiblegridlinesonly="true"
       originx="-148"
       originy="-19" />
    <inkscape:grid
       type="xygrid"
       id="grid11592"
       empspacing="2"
       visible="true"
       enabled="false"
       spacingx="0.5"
       spacingy="0.5"
       color="#ff0000"
       opacity="0.1254902"
       empcolor="#ff0000"
       empopacity="0.25098039"
       snapvisiblegridlinesonly="true"
       originx="-148"
       originy="-19" />
  </sodipodi:namedview>
  <defs
     id="defs3">
    <linearGradient
       id="linearGradient3864">
      <stop
         id="stop3866"
         offset="0"
         style="stop-color:#a248af;stop-opacity:1;" />
      <stop
         id="stop3868"
         offset="1"
         style="stop-color:#a86ab1;stop-opacity:1;" />
    </linearGradient>
    <inkscape:perspective
       id="perspective2865"
       inkscape:persp3d-origin="372.04724 : 350.78739 : 1"
       inkscape:vp_z="744.09448 : 526.18109 : 1"
       inkscape:vp_y="0 : 1000 : 0"
       inkscape:vp_x="0 : 526.18109 : 1"
       sodipodi:type="inkscape:persp3d" />
    <inkscape:perspective
       sodipodi:type="inkscape:persp3d"
       inkscape:vp_x="0 : 0.5 : 1"
       inkscape:vp_y="0 : 1000 : 0"
       inkscape:vp_z="1 : 0.5 : 1"
       inkscape:persp3d-origin="0.5 : 0.33333333 : 1"
       id="perspective2843" />
    <clipPath
       id="clipPath3860"
       clipPathUnits="userSpaceOnUse">
      <rect
         ry="10.5"
         y="0"
         x="0"
         height="21"
         width="72"
         id="rect3862"
         style="color:#000000;display:inline;overflow:visible;visibility:visible;opacity:0.7;fill:#000000;fill-opacity:1;fill-rule:nonzero;stroke:none;stroke-width:2;marker:none;enable-background:new" />
    </clipPath>
    <linearGradient
       gradientTransform="translate(-444.64286,-782.36221)"
       gradientUnits="userSpaceOnUse"
       y2="803.36218"
       x2="464.64285"
       y1="783.36218"
       x1="464.64285"
       id="linearGradient3870"
       xlink:href="#linearGradient3864"
       inkscape:collect="always" />
    <clipPath
       id="clipPath4169"
       clipPathUnits="userSpaceOnUse">
      <path
         style="color:#000000;font-style:normal;font-variant:normal;font-weight:normal;font-stretch:normal;font-size:medium;line-height:normal;font-family:sans-serif;text-indent:0;text-align:start;text-decoration:none;text-decoration-line:none;text-decoration-style:solid;text-decoration-color:#000000;letter-spacing:normal;word-spacing:normal;text-transform:none;writing-mode:lr-tb;direction:ltr;baseline-shift:baseline;text-anchor:start;white-space:normal;clip-rule:nonzero;display:inline;overflow:visible;visibility:visible;opacity:1;isolation:auto;mix-blend-mode:normal;color-interpolation:sRGB;color-interpolation-filters:linearRGB;solid-color:#000000;solid-opacity:1;fill:#5f7c8a;fill-opacity:1;fill-rule:nonzero;stroke:none;stroke-width:12;stroke-linecap:square;stroke-linejoin:miter;stroke-miterlimit:4;stroke-dasharray:none;stroke-dashoffset:0;stroke-opacity:1;color-rendering:auto;image-rendering:auto;shape-rendering:auto;text-rendering:auto;enable-background:accumulate"
         d="m 455.14258,782.36133 c -5.71322,0 -10.5,4.78678 -10.5,10.5 0,5.71321 4.78678,10.5 10.5,10.5 h 46 c 5.71321,0 10.5,-4.78679 10.5,-10.5 0,-5.71322 -4.78679,-10.5 -10.5,-10.5 z"
         id="path4171"
         inkscape:connector-curvature="0"
         sodipodi:nodetypes="sssssss" />
    </clipPath>
    <clipPath
       id="clipPath4152"
       clipPathUnits="userSpaceOnUse">
      <path
         style="color:#000000;font-style:normal;font-variant:normal;font-weight:normal;font-stretch:normal;font-size:medium;line-height:normal;font-family:sans-serif;text-indent:0;text-align:start;text-decoration:none;text-decoration-line:none;text-decoration-style:solid;text-decoration-color:#000000;letter-spacing:normal;word-spacing:normal;text-transform:none;writing-mode:lr-tb;direction:ltr;baseline-shift:baseline;text-anchor:start;white-space:normal;clip-rule:nonzero;display:inline;overflow:visible;visibility:visible;opacity:1;isolation:auto;mix-blend-mode:normal;color-interpolation:sRGB;color-interpolation-filters:linearRGB;solid-color:#000000;solid-opacity:1;fill:#9fb0b9;fill-opacity:1;fill-rule:nonzero;stroke:none;stroke-width:12;stroke-linecap:square;stroke-linejoin:miter;stroke-miterlimit:4;stroke-dasharray:none;stroke-dashoffset:0;stroke-opacity:1;color-rendering:auto;image-rendering:auto;shape-rendering:auto;text-rendering:auto;enable-background:accumulate"
         d="m 455.14258,782.36133 c -5.71322,0 -10.5,4.78678 -10.5,10.5 0,5.71321 4.78678,10.5 10.5,10.5 h 46 c 5.71321,0 10.5,-4.78679 10.5,-10.5 0,-5.71322 -4.78679,-10.5 -10.5,-10.5 z"
         id="path4154"
         inkscape:connector-curvature="0"
         sodipodi:nodetypes="sssssss" />
    </clipPath>
    <inkscape:perspective
       id="perspective2865-4"
       inkscape:persp3d-origin="372.04724 : 350.78739 : 1"
       inkscape:vp_z="744.09448 : 526.18109 : 1"
       inkscape:vp_y="0 : 1000 : 0"
       inkscape:vp_x="0 : 526.18109 : 1"
       sodipodi:type="inkscape:persp3d" />
    <inkscape:perspective
       sodipodi:type="inkscape:persp3d"
       inkscape:vp_x="0 : 0.5 : 1"
       inkscape:vp_y="0 : 1000 : 0"
       inkscape:vp_z="1 : 0.5 : 1"
       inkscape:persp3d-origin="0.5 : 0.33333333 : 1"
       id="perspective2843-9" />
    <clipPath
       id="clipPath3860-3"
       clipPathUnits="userSpaceOnUse">
      <rect
         ry="10.5"
         y="0"
         x="0"
         height="21"
         width="72"
         id="rect3862-1"
         style="color:#000000;display:inline;overflow:visible;visibility:visible;opacity:0.7;fill:#000000;fill-opacity:1;fill-rule:nonzero;stroke:none;stroke-width:2;marker:none;enable-background:new" />
    </clipPath>
    <linearGradient
       gradientTransform="translate(-444.64286,-782.36221)"
       gradientUnits="userSpaceOnUse"
       y2="803.36218"
       x2="464.64285"
       y1="783.36218"
       x1="464.64285"
       id="linearGradient4369"
       xlink:href="#linearGradient3864"
       inkscape:collect="always" />
    <linearGradient
       y2="803.36218"
       x2="464.64285"
       y1="783.36218"
       x1="464.64285"
       gradientTransform="translate(-444.64286,-782.36221)"
       gradientUnits="userSpaceOnUse"
       id="linearGradient3789"
       xlink:href="#linearGradient3864"
       inkscape:collect="always" />
    <linearGradient
       y2="803.36218"
       x2="464.64285"
       y1="783.36218"
       x1="464.64285"
       gradientTransform="translate(-444.64286,-782.36221)"
       gradientUnits="userSpaceOnUse"
       id="linearGradient3808"
       xlink:href="#linearGradient3864"
       inkscape:collect="always" />
    <clipPath
       clipPathUnits="userSpaceOnUse"
       id="clipPath5865">
      <path
         id="path5867"
         d="M 84,46.5 C 56.568735,46.5 34.5,68.568732 34.5,96 v 120 c 0,27.43127 22.068735,49.5 49.5,49.5 h 120 c 27.43127,0 49.5,-22.06873 49.5,-49.5 V 96 C 253.5,68.568732 231.43127,46.5 204,46.5 Z"
         style="color:#bebebe;display:inline;overflow:visible;visibility:visible;opacity:0.5;fill:#ac4444;fill-opacity:1;fill-rule:nonzero;stroke:none;stroke-width:2;marker:none;enable-background:accumulate"
         inkscape:connector-curvature="0" />
    </clipPath>
  </defs>
  <metadata
     id="metadata4">
    <rdf:RDF>
      <cc:Work
         rdf:about="">
        <dc:format>image/svg+xml</dc:format>
        <dc:type
           rdf:resource="http://purl.org/dc/dcmitype/StillImage" />
        <dc:creator>
          <cc:Agent>
            <dc:title>Sam Hewitt</dc:title>
          </cc:Agent>
        </dc:creator>
        <dc:source />
        <cc:license
           rdf:resource="http://creativecommons.org/licenses/by-sa/4.0/" />
        <dc:title>Paper Icon Theme</dc:title>
        <dc:subject>
          <rdf:Bag />
        </dc:subject>
        <dc:date />
        <dc:rights>
          <cc:Agent>
            <dc:title />
          </cc:Agent>
        </dc:rights>
        <dc:publisher>
          <cc:Agent>
            <dc:title />
          </cc:Agent>
        </dc:publisher>
        <dc:identifier />
        <dc:relation />
        <dc:language />
        <dc:coverage />
        <dc:description />
        <dc:contributor>
          <cc:Agent>
            <dc:title />
          </cc:Agent>
        </dc:contributor>
      </cc:Work>
      <cc:Work
         rdf:about="">
        <dc:format>image/svg+xml</dc:format>
        <dc:type
           rdf:resource="http://purl.org/dc/dcmitype/StillImage" />
      </cc:Work>
      <cc:License
         rdf:about="http://creativecommons.org/licenses/by-sa/4.0/">
        <cc:permits
           rdf:resource="http://creativecommons.org/ns#Reproduction" />
        <cc:permits
           rdf:resource="http://creativecommons.org/ns#Distribution" />
        <cc:requires
           rdf:resource="http://creativecommons.org/ns#Notice" />
        <cc:requires
           rdf:resource="http://creativecommons.org/ns#Attribution" />
        <cc:permits
           rdf:resource="http://creativecommons.org/ns#DerivativeWorks" />
        <cc:requires
           rdf:resource="http://creativecommons.org/ns#ShareAlike" />
      </cc:License>
    </rdf:RDF>
  </metadata>
  <g
     style="display:inline"
     inkscape:groupmode="layer"
     inkscape:label="Icon"
     id="layer1"
     transform="translate(-148,-240)">
    <g
       style="display:none"
       inkscape:label="Baseplate"
       id="layer7"
       inkscape:groupmode="layer">
      <rect
         transform="scale(-1,1)"
         inkscape:label="48x48"
         y="-228"
         x="-720"
         height="512"
         width="512"
         id="rect4319"
         style="display:inline;overflow:visible;visibility:visible;fill:#e9e9e9;fill-opacity:1;fill-rule:nonzero;stroke:none;stroke-width:2;marker:none;enable-background:accumulate" />
      <text
         y="325.74512"
         xml:space="preserve"
         x="15.006836"
         style="font-style:normal;font-variant:normal;font-weight:normal;font-stretch:normal;line-height:0%;font-family:'DejaVu Sans';-inkscape-font-specification:'DejaVu Sans';display:inline;fill:#000000;fill-opacity:1;stroke:none;enable-background:new"
         inkscape:label="context"
         id="context"><tspan
           style="font-style:normal;font-variant:normal;font-weight:normal;font-stretch:normal;font-size:18px;line-height:1.25;font-family:'DejaVu Sans';-inkscape-font-specification:'DejaVu Sans'"
           y="325.74512"
           x="15.006836"
           sodipodi:role="line"
           id="tspan3933">apps</tspan></text>
      <text
         y="325.74512"
         xml:space="preserve"
         x="142.48828"
         style="font-style:normal;font-variant:normal;font-weight:bold;font-stretch:normal;line-height:0%;font-family:'DejaVu Sans';-inkscape-font-specification:'DejaVu Sans Bold';text-align:start;writing-mode:lr-tb;text-anchor:start;display:inline;fill:#000000;fill-opacity:1;stroke:none;enable-background:new"
         inkscape:label="icon-name"
         id="icon-name"><tspan
           style="font-style:normal;font-variant:normal;font-weight:bold;font-stretch:normal;font-size:18px;line-height:1.25;font-family:'DejaVu Sans';-inkscape-font-specification:'DejaVu Sans Bold'"
           y="325.74512"
           x="142.48828"
           sodipodi:role="line"
           id="tspan3937">nvidia-settings</tspan></text>
      <rect
         style="display:inline;overflow:visible;visibility:visible;fill:#e9e9e9;fill-opacity:1;fill-rule:nonzero;stroke:none;stroke-width:2;marker:none;enable-background:accumulate"
         id="rect16x16"
         width="16"
         height="16"
         x="-32"
         y="268"
         inkscape:label="16x16"
         transform="scale(-1,1)" />
      <rect
         style="display:inline;overflow:visible;visibility:visible;fill:#e9e9e9;fill-opacity:1;fill-rule:nonzero;stroke:none;stroke-width:2;marker:none;enable-background:accumulate"
         id="rect24x24"
         width="24"
         height="24"
         x="-76"
         y="260"
         inkscape:label="24x24"
         transform="scale(-1,1)" />
      <rect
         style="display:inline;overflow:visible;visibility:visible;fill:#e9e9e9;fill-opacity:1;fill-rule:nonzero;stroke:none;stroke-width:2;marker:none;enable-background:accumulate"
         id="rect32x32"
         width="32"
         height="32"
         x="-128"
         y="252"
         inkscape:label="32x32"
         transform="scale(-1,1)" />
      <rect
         inkscape:label="48x48"
         y="236"
         x="-192"
         height="48"
         width="48"
         id="rect48x48"
         style="display:inline;overflow:visible;visibility:visible;fill:#e9e9e9;fill-opacity:1;fill-rule:nonzero;stroke:none;stroke-width:2;marker:none;enable-background:accumulate"
         transform="scale(-1,1)" />
    </g>
    <g
       inkscape:groupmode="layer"
       id="layer6"
       inkscape:label="Symbols"
       style="display:inline">
      <rect
         ry="2"
         rx="2"
         y="-180"
         x="-281"
         height="40"
         width="40"
         id="rect4475"
         style="opacity:0.2;fill:#000000;fill-opacity:1;stroke:none"
         transform="matrix(0,-1,-1,0,8,0)" />
      <rect
         transform="matrix(0,-1,-1,0,0,0)"
         style="fill:#3f3f3f;fill-opacity:1;stroke:none"
         id="rect4203"
         width="40"
         height="40"
         x="-280"
         y="-188"
         rx="2"
         ry="2" />
      <path
         style="color:#bebebe;display:inline;overflow:visible;visibility:visible;fill:#76b900;fill-opacity:1;fill-rule:nonzero;stroke:none;stroke-width:0;marker:none;enable-background:accumulate"
         d="m 165.00041,240.00014 v 11.98364 c 0.10726,-0.003 0.21301,-0.008 0.31926,-0.009 6.96815,-0.0461 11.48872,6.01563 11.48872,6.01563 0,0 -5.35764,6.66014 -10.93768,6.66014 -0.30202,0 -0.59061,-0.0143 -0.87031,-0.0448 v 1.75456 c 0.20504,0.0137 0.41558,0.0179 0.62977,0.0179 5.1926,0 8.95031,-2.70937 12.58641,-5.92163 0.60287,0.49415 3.07004,1.6938 3.57739,2.22006 -3.45727,2.96239 -11.5171,5.3487 -16.08508,5.3487 -0.24158,0 -0.47627,-0.009 -0.70849,-0.0224 V 280 H 186 c 0,0 2,0 2,-2 v -36 c 0,-2 -2,-2 -2,-2 z m 0,28.00293 v -1.64267 c -0.19321,-0.0129 -0.33107,-0.0339 -0.51764,-0.0582 -6.35454,-0.81817 -8.52797,-7.98502 -8.52797,-7.98502 0,0 2.84434,-4.29977 8.52797,-4.74446 0.18291,-0.0131 0.32942,-0.0252 0.51764,-0.0313 0.004,-1.5e-4 -0.004,1.3e-4 0,0 v -1.55762 0 c -0.18581,0.007 -0.33283,0.0168 -0.51764,0.0313 -6.29534,0.51744 -11.74674,5.97534 -11.74674,5.97534 0,0 3.08752,9.13589 11.74674,9.97233 0.18761,0.0185 0.32662,0.0294 0.51764,0.0402 z m 1e-5,-14.46167 -1e-5,1.91121 c 0.1536,-0.009 0.35943,-0.018 0.51884,-0.0179 3.29674,0 5.25236,2.62735 5.25236,2.62735 l -2.68085,2.31405 c -1.0804,-1.84331 -1.56672,-2.7616 -3.09035,-3.11077 v 5.89477 c 0,0.30464 0.6655,0.0985 1.00428,0.0985 3.91035,0 7.5571,-5.18759 7.5571,-5.18759 0,0 -3.42216,-4.68658 -8.56137,-4.52961 z m -1e-5,9.61873 c -0.19728,-0.0406 -0.33691,-0.09 -0.51764,-0.15218 -2.70754,-0.93107 -3.58612,-4.16707 -3.58612,-4.16707 0,0 1.56731,-1.92534 3.57739,-1.67847 h 0.009 c 0.20653,0.0256 0.34251,0.0627 0.51763,0.10294 v -1.81274 c -0.19169,0.0117 -0.33071,0.0287 -0.51763,0.0493 -3.82979,0.42398 -6.13578,3.03915 -6.13578,3.03915 0,0 1.33314,5.10799 6.13578,5.98429 0.18411,0.0334 0.3237,0.0594 0.51762,0.0806 z"
         id="rect4040-0-2"
         inkscape:connector-curvature="0"
         clip-path="none"
         sodipodi:nodetypes="ccccsccsccscccccccccccccccccccccccccccscccccccccccccccc" />
      <path
         style="opacity:0.2;fill:#ffffff;fill-opacity:1;stroke:none"
         d="m 150,240 c -1.108,0 -2,0.892 -2,2 v 1 c 0,-1.108 0.892,-2 2,-2 h 36 c 1.108,0 2,0.892 2,2 v -1 c 0,-1.108 -0.892,-2 -2,-2 z"
         id="rect4481"
         inkscape:connector-curvature="0"
         sodipodi:nodetypes="sscsscsss" />
      <path
         style="color:#bebebe;display:inline;overflow:visible;visibility:visible;opacity:0.2;fill:#ffffff;fill-opacity:1;fill-rule:nonzero;stroke:none;stroke-width:0;marker:none;enable-background:accumulate"
         clip-path="none"
         d="m 165.0004,495.98438 c -0.18581,0.007 -0.33277,0.0168 -0.51758,0.0312 -6.29534,0.51744 -11.74609,5.97461 -11.74609,5.97461 0,0 0.11974,0.30978 0.29883,0.72852 0.76462,-0.73249 5.64766,-5.22643 11.44726,-5.70313 0.18481,-0.0145 0.33177,-0.0242 0.51758,-0.0312 z m 0,1.55664 v 1 c 4.29201,-0.1311 7.25266,2.97467 8.15625,4.04882 0.17334,-0.22369 0.4043,-0.51953 0.4043,-0.51953 0,0 -3.42134,-4.68626 -8.56055,-4.52929 z m 0,1.9121 c -0.19169,0.0117 -0.33066,0.0282 -0.51758,0.0488 -3.82979,0.42398 -6.13476,3.03907 -6.13476,3.03907 0,0 0.0943,0.32055 0.25976,0.74414 0.5858,-0.58551 2.63579,-2.42461 5.875,-2.78321 0.18692,-0.0206 0.32589,-0.0371 0.51758,-0.0488 z m 0,1.8125 v 1 c 1.52363,0.34917 2.00944,1.26607 3.08984,3.10938 l 2.68164,-2.3125 c 0,0 -0.18897,-0.2377 -0.51171,-0.55859 l -2.16993,1.87304 c -1.0804,-1.84331 -1.56621,-2.76216 -3.08984,-3.11133 z m 11.37109,1.2168 c -1.05339,1.22406 -5.57937,6.16797 -10.5,6.16797 -0.30202,0 -0.59139,-0.0144 -0.87109,-0.0449 v 1 c 0.2797,0.0305 0.56907,0.0449 0.87109,0.0449 5.58004,0 10.9375,-6.66016 10.9375,-6.66016 0,0 -0.28014,-0.3194 -0.4375,-0.50781 z m -20.16211,0.51172 c -0.0805,0.10794 -0.2539,0.32227 -0.2539,0.32227 0,0 2.1728,7.16815 8.52734,7.98632 0.18657,0.0243 0.32437,0.0437 0.51758,0.0566 v -0.99805 c -0.19321,-0.0129 -0.33101,-0.0343 -0.51758,-0.0586 -5.20546,-0.67022 -7.57576,-5.54737 -8.27344,-7.30859 z m 4.95118,0.56055 c -0.16472,0.1649 -0.26368,0.28515 -0.26368,0.28515 0,0 0.8784,3.2369 3.58594,4.16797 0.18073,0.0622 0.3203,0.11175 0.51758,0.15235 v -1 c -0.19728,-0.0406 -0.33685,-0.0902 -0.51758,-0.15235 -1.91227,-0.65759 -2.89983,-2.44813 -3.32226,-3.45312 z m 19.9707,3.64062 c -3.7385,2.71698 -11.12421,4.83008 -15.42188,4.83008 -0.24158,0 -0.47676,-0.008 -0.70898,-0.0215 v 0.99804 c 0,0.23261 0.4674,0.0234 0.70898,0.0234 4.56798,0 12.62672,-2.38722 16.08399,-5.34961 -0.12223,-0.12678 -0.36587,-0.2948 -0.66211,-0.48047 z"
         transform="translate(0,-244)"
         id="path4288"
         inkscape:connector-curvature="0"
         sodipodi:nodetypes="cccccccccccccccccccccccccccsccsccccccccccccccccccccscccc" />
    </g>
  </g>
</svg>
