<svg height="22" width="22" xmlns="http://www.w3.org/2000/svg">
    <style type="text/css" id="current-color-scheme">
        .ColorScheme-Text {
            color:#232629;
        }
    </style>
    <g class="ColorScheme-Text" fill="currentColor">
        <path d="M10 9v5a2 2 0 0 0 2 2V9zm0-3h2v2h-2z"/>
        <path d="M4 7.146A8 8 0 0 0 3 11a8 8 0 0 0 8 8 8 8 0 0 0 6-2.723v-1.69A7 7 0 0 1 11 18a7 7 0 0 1-7-7z"/>
        <path d="M11.5 3A7.5 7.5 0 0 0 5 6.777V10.5A6.5 6.5 0 0 1 11.5 4a6.5 6.5 0 0 1 6.5 6.5v3.723a7.5 7.5 0 0 0 1-3.723A7.5 7.5 0 0 0 11.5 3z"/>
    </g>
</svg>
