<svg height="22" width="22" xmlns="http://www.w3.org/2000/svg">
    <style type="text/css" id="current-color-scheme">
        .ColorScheme-Text {
            color:#232629;
        }
    </style>
    <g class="ColorScheme-Text" fill="currentColor">
        <path d="M11 3v2a6 6 0 0 1 4.242 1.758l2.121 2.12-4.242 4.243A3 3 0 0 1 11 14v2a5 5 0 0 0 3.535-1.465L18 11.07v1.414l-2.758 2.758A6 6 0 0 1 11 17v2h8V3z"/>
        <path d="M11 6v2a3 3 0 0 1 2.121.879l1.414 1.414 1.414-1.414-1.414-1.414A5 5 0 0 0 11 6zm0 3v4a2 2 0 0 0 1.414-.586L13.828 11l-1.414-1.414A2 2 0 0 0 11 9zm0-1a3 3 0 0 0-2.121.879L6.758 11l2.12 2.121A3 3 0 0 0 11 14v-1a2 2 0 0 1-1.414-.586L8.172 11l1.414-1.414A2 2 0 0 1 11 9z"/>
        <path d="M11 5a6 6 0 0 0-4.242 1.758L2.516 11l4.242 4.242A6 6 0 0 0 11 17v-1a5 5 0 0 1-3.535-1.465L3.93 11l3.535-3.535A5 5 0 0 1 11 6z"/>
    </g>
</svg>
